<svg version="1" xmlns="http://www.w3.org/2000/svg" width="3509.333" height="3509.333" viewBox="0 0 2632.000000 2632.000000"><path d="M1864.8 149.5c-.2.1-4.3.5-9.3.9-21.3 1.5-43.4 6.9-63 15.5-60.5 26.5-104 80.8-116.4 145.1-1.8 9.4-2.1 11.3-2.8 19.5-1.5 16.5-.5 38.5 2.3 54.3 5.8 31.7 20.7 64.2 40.9 89.2 9.4 11.6 24.4 26.4 32.5 32 1.9 1.3 3.7 2.7 4 3.1.3.3 4.8 3.4 10 6.9 19.9 13 48.1 24.6 69.5 28.5 15.8 2.8 24.9 3.6 39.9 3.6 13.5 0 17.8-.3 30.5-2.2 4-.6 7.7-.7 8.1-.2.6.6 18.2 30.9 30.2 52 2.5 4.6 3.6 6.4 20.6 36 8.4 14.4 16 27.7 17 29.5 1.1 1.8 6.7 11.6 12.6 21.7 5.8 10.1 10.6 18.5 10.6 18.7 0 .3.8 1.7 1.9 3.2 1.6 2.4 21.6 36.9 27.9 48.2 6.5 11.7 29.9 52.2 33.3 57.7 2.2 3.4 3.9 6.5 3.9 6.7 0 .3 2.2 4.3 4.9 8.8 2.6 4.6 9.1 15.7 14.3 24.8 5.2 9.1 12.1 21 15.3 26.5 3.2 5.5 6.7 11.6 7.8 13.5 1.1 1.9 4 7.1 6.5 11.5s5.5 9.6 6.7 11.5c1.2 1.9 3.5 6 5.2 9 1.7 3 7.2 12.7 12.3 21.5 5.1 8.8 15.3 26.5 22.7 39.3 7.3 12.8 14.5 25.1 15.8 27.2 1.4 2.2 2.5 4.2 2.5 4.5 0 .2 3 5.5 6.7 11.7 4.3 7.4 8.8 13.4 12.9 17.4 16.2 15.8 41.7 21 62.6 12.8 24.3-9.5 39.3-32.7 38.1-58.7-.5-11.6-3.8-20.2-14.7-39.2-12.6-21.8-12.2-21.2-19.3-33.5-3.3-5.8-9.3-16.1-13.3-23-5.9-10.3-25.7-44.6-33-57.4-.9-1.7-4.1-7.2-7-12.1-2.9-5-6.6-11.5-8.3-14.5-1.6-3-3.6-6.2-4.3-7.1-.8-.8-1.4-1.8-1.4-2.2 0-.4-2-4.1-4.5-8.3-2.5-4.1-4.5-7.8-4.5-8.1 0-.3-.8-1.7-1.8-3.1-1.1-1.5-3.3-5.2-4.9-8.2-1.7-3-6.2-11-10.2-17.7-3.9-6.7-7.1-12.6-7.1-13.2 0-.6-.4-1.1-1-1.1-.5 0-1-.4-1-1 0-.5-1.4-3.3-3.1-6.2-3.9-6.4-4.2-7.1-16.4-28.2-5.3-9.3-10.6-18.3-11.6-20-1-1.7-2.2-3.7-2.6-4.5-.4-.8-4.2-7.6-8.6-15-4.3-7.5-9.1-15.8-10.5-18.5-1.5-2.7-3.2-5.6-3.7-6.5-1.9-2.9-37.7-64.8-42.3-73.1-1.4-2.5-8.4-14.6-15.5-27-30.5-52.7-35.8-62.1-36.3-63.5-.4-1 1-3.3 3.9-6.3 11.8-12.7 25.9-34.5 34-52.7 3.1-7 8.2-21 9.3-25.5.2-.8 1-4 1.8-7s1.7-7.1 2-9c.3-1.9.8-4.6 1.1-6 1.5-7 1.7-11.1 2-30 .2-11.3 0-23.2-.5-26.5-.5-3.3-1.2-8-1.6-10.5-1-7.1-6-25.7-9.4-34.9-14.7-40-42.2-74.5-78.2-98.2-15.6-10.3-36.3-19.7-54.3-24.8-6.5-1.8-9.2-2.4-15.5-3.6-1.4-.3-3.6-.7-5-1-9.3-1.8-39.9-4.1-41.2-3zm17.2 119c3.6.4 6.5.7 6.5.6 0-.1 3.2 1 7.2 2.3 17.7 6 30.3 15 40.5 28.9 6.4 8.7 7 9.8 10.3 17.9 10.8 26.5 6.5 57.1-11.3 79.8-15.6 19.8-38.4 30.8-63.9 30.7-5.4 0-10.9-.3-12.3-.7-1.4-.4-5-1.3-8-2-12-2.8-25.8-10.8-36-20.9-21.2-21.1-28.8-52.4-19.8-81.1 9.1-28.9 34.7-50.6 65.1-55.3 8.7-1.3 11.2-1.3 21.7-.2zM740.7 153.6c-.1.1-4 .5-8.7.8-36.5 2.4-75 16.8-104.5 39.1-11.5 8.6-24.1 20.4-31.5 29.4-1.9 2.3-4.5 5.4-5.8 6.9-5.2 6-15.9 23.1-21.7 34.5-5.5 11-14.6 35.6-15.9 43.2-.3 1.6-.7 4.1-1.1 5.5-.3 1.4-.8 4.1-1.1 6-.2 1.9-.6 4.5-.9 5.8-2.5 13.8-2.5 44.3 0 57.3.3 1.3.7 4.1 1 6.4.4 2.2 1.1 5.8 1.7 8 .5 2.2 1.2 5.1 1.5 6.4 1.2 6.7 9.1 28 14.5 38.9 25.8 52.5 73 90.6 130.3 105.2 6.1 1.6 13.5 3.1 16.5 3.5 3 .3 6.3.8 7.2 1.1 4.2 1.2 35.6 1.9 42.3.9 1.7-.2 4.8-.6 7-.9 32.9-4 60.8-14.7 90-34.5 4.4-3 8.2-5.7 8.5-6 .3-.3 2.7-2.4 5.5-4.6 11.4-9.2 27.3-26.7 36.7-40.6 8.3-12.2 13.5-22 20.2-38.2l4.1-9.9 132 .2c371.2.5 436.4.5 441-.2 8.4-1.2 10.5-1.8 17.1-4.8 12-5.4 22.8-15.9 28.9-28 14.4-28.8 1.9-65.5-27.2-79.6-13.5-6.6-8.7-6.3-137.3-6.4-292.4-.2-450.9-.5-451.4-1-.3-.3-2.2-5.3-4.1-11-11.6-33.2-32.7-63.8-60-86.8-27.7-23.3-65.4-39.9-101.5-44.7-9.9-1.3-32.5-2.6-33.3-1.9zM755 273.4c39.3 3.2 71.4 37.4 72.3 77.1.2 10.1-.9 20.8-2.4 23.6-.5 1.1-.8 1.9-.5 1.9 1.1 0-5.6 14.5-9.7 20.7-8.7 13.3-18.8 22.4-32.4 28.9-12.6 6.1-20.1 7.7-35.3 7.8-12.6.1-14.1-.2-23.7-3.3-12.1-3.9-23.4-10.6-32-18.9-6.1-5.9-17.3-21.7-17.3-24.4 0-.8-.4-1.8-.9-2.3-.5-.6-1.6-3.3-2.4-6-7.6-24.3-4.5-47.7 9.1-69 10.2-16 27.1-28.5 45.4-33.5 6.9-1.9 20.1-3.9 22.3-3.4.6.1 3.9.5 7.5.8zM588 606.6c-11.8 2-16.3 3.7-25.1 9.5-12 8-7.4 1-108.9 168.4-5.7 9.3-13.8 22.7-18.1 29.7-4.4 7-7.9 13.2-7.9 13.7s-.3 1.1-.7 1.3c-.8.3-10.3 15.5-10.3 16.4 0 .3-1.3 2.4-2.8 4.7-1.6 2.3-6.4 10-10.7 17.2-4.3 7.1-12.1 20-17.3 28.5-5.2 8.5-12 19.8-15.2 25-3.1 5.2-15.7 25.9-28 46-12.2 20.1-23 37.8-24 39.5-.9 1.6-7.5 12.4-14.5 24-7.1 11.5-13.5 22.1-14.2 23.5-.8 1.4-2.6 4.4-4.1 6.8-6.3 10.1-30.8 50.5-32.1 52.8-1.1 2.2-1.7 2.5-4.5 1.9-1.7-.3-4.2-.8-5.6-1.1-1.4-.3-3.2-.7-4-.9-.8-.3-3.2-.7-5.4-1.1-2.1-.3-4.8-.7-6-1-4.4-.8-19.5-1.8-28.6-1.8-9.5 0-27.8 1.2-28.9 1.8-.3.2-2.8.7-5.6 1-2.7.4-5.8.9-6.7 1.2-.9.3-2.5.7-3.7.9-9.7 1.8-25.7 7.3-38.6 13.3-41.6 19-76.1 52.7-96 93.7-7.7 15.9-15.3 39-17.1 52-.3 1.6-.7 3.9-.9 5.1-1.9 8.8-2.6 37.4-1.3 50.9 1.5 14.6 4.6 29.2 8.9 42 14.1 42 40.2 76.9 76 101.7 9.5 6.6 29.2 17.8 31.3 17.8.7 0 1.6.4 2.1.9 2.3 2.2 28.2 10.6 38.9 12.7 16.9 3.3 22.9 3.8 41.1 3.9 18.8 0 25.9-.7 41.5-3.9 60.3-12.6 112.3-53.3 138.7-108.6 4.3-8.9 9.9-22.9 10.7-26.5.1-.6 1-3.5 1.8-6.5 7-23.8 9.4-61.6 5.3-83.1-.3-1.3-.7-4.1-1.1-6.4-.3-2.2-1.8-9-3.4-15-6.1-23.7-16.1-45.1-30.4-64.9-3.9-5.4-7.6-10.6-8.3-11.5-.9-1.3 2.3-7.2 18.9-34.6 11.1-18.2 32.2-53 47.1-77.5 14.8-24.5 28-46.1 29.2-48 1.2-1.9 6.9-11.2 12.5-20.5 5.7-9.4 12.5-20.6 15.2-25 2.7-4.4 5.3-8.7 5.8-9.5.5-.8 3.9-6.5 7.6-12.5 3.7-6.1 9.3-15.3 12.4-20.5 3.1-5.2 9.4-15.6 14-23s8.8-14.4 9.4-15.5c2.7-4.9 10.1-17 10.6-17.5.3-.3 1.1-1.6 1.9-3 .8-1.4 7.1-11.7 13.9-23 6.9-11.3 14.3-23.4 16.4-27 6-10 20.1-33 23.1-37.7 1.5-2.4 2.7-4.5 2.7-4.8 0-.3 1.9-3.5 4.3-7.2 2.4-3.8 10.8-17.4 18.6-30.3 16.8-27.7 14.6-24.1 22.1-36.3 13.7-22.4 16.3-30.1 15.5-45.9-.6-12-3-20-9.1-29.6-9.3-14.6-26.2-25.2-42.6-26.7-3.5-.4-6.7-.8-7.3-.9-.5-.1-4.4.3-8.5 1zm-375.7 622.8c25.2 4.7 45.8 19.1 57.8 40.6 4.4 7.8 8.4 19.5 9.5 28 3.9 30.3-9.3 60.1-34.2 77.3-37.9 26.1-90.6 14.8-114.3-24.6-8.1-13.4-11.5-25.7-11.4-41.7 0-13.8 1.7-21.7 7.7-34.5 13.8-29.3 43.7-47.3 76.4-45.8 3.4.1 7.3.5 8.5.7zM1274.7 710.6c-.1.1-4.5.5-9.7.8-14.6 1.1-20.2 1.5-24 2.1-1.9.3-5.7.7-8.5 1.1-2.7.3-6.1.7-7.5.9-1.4.2-4.5.7-7 1-4.5.6-19.4 3.1-24 4-7 1.4-13.8 2.7-16 3.1-1.4.2-9.5 2.2-18 4.4s-16.4 4.2-17.4 4.5c-7.1 1.7-39.2 12.4-52.1 17.3C988.3 789 900.1 854 830.3 941.7c-6.7 8.4-22.8 30.2-25.8 35-.5.9-3.4 5.2-6.2 9.5-2.9 4.4-5.3 8.2-5.3 8.5 0 .2-1.3 2.3-2.8 4.6-9.5 14-30.9 55.2-40.7 78.2-2.1 4.9-4.6 10.8-5.5 13-.9 2.2-3.2 8-5 13-1.8 4.9-3.5 9.7-3.8 10.5-.3.8-.6 1.9-.8 2.5-.1.5-1.2 3.5-2.3 6.5-4.8 13.1-13.9 45.5-16.8 60-.4 1.9-.8 3.7-.8 4-.1.3-.4 1.8-.8 3.5-.9 3.5-1.2 5.3-3.2 16-1.7 9.6-2.4 13.3-4 24.5-1.3 8.9-1.6 11.4-3 26.2-.3 2.9-.7 7.5-1 10.3-2.2 22.4-2.3 54.2-.1 62.4 2.4 9.5 7.3 17.8 14.6 25.1 28.9 28.9 77.5 18.2 91.8-20.2 2.6-7 3.2-12.1 3.7-32.4.3-14.6 1-26.3 2-33.9.2-1.7.7-6.2 1.1-10 .6-6.2 5.2-35.1 6.8-43 19.7-93.9 65.9-179.5 133.6-247.6 12.7-12.8 22.5-21.8 32.4-30 1.6-1.3 3.7-3.2 4.7-4.1 1-.9 7.5-6 14.6-11.4 50.7-38.4 105.5-65.6 166.8-82.9 7.2-2 13.7-3.8 14.5-4 27.4-6 42-8.5 63-11 12.2-1.5 27.8-2.5 47.6-3 15.5-.4 22.7-1.7 30.7-5.6 35.7-17.3 42.9-64.5 14-90.9-6.7-6.1-12-9.3-20.4-12.2-5.8-2.1-8.3-2.3-27.7-2.3-11.7-.1-21.4 0-21.5.1z"/><path d="M1284.7 910.6c-.1.1-4.7.5-10.2.9-5.5.3-10.7.8-11.5 1-.8.2-4.2.6-7.5 1-3.3.3-8.2 1-11 1.5-2.7.5-6.6 1.1-8.5 1.4-6.4.9-23.4 4.6-31 6.7-4.1 1.1-8.2 2.2-9 2.4-5.3 1.2-31.3 10-38.5 13-48 20-84.2 42.3-119.7 73.6-14.6 12.9-35.7 34.9-45.9 47.9-2.4 3-4.6 5.7-4.9 6-5.9 5.7-37 53.5-37 57 0 .4-.3 1-.7 1.2-1.5.6-14.5 28.2-20.6 43.8-6.7 17.2-15.6 46.2-18.3 59.5-4.4 22.3-4.6 23.5-5.9 34-.4 2.7-.8 6.1-1 7.4-.2 1.2-.7 6-1 10.5-.4 4.4-.8 10.1-1.1 12.6-.9 9.7-.6 29.9.6 35.5 3.9 19.7 20.4 36.9 40.5 42.2 25.4 6.8 54-6.8 64.6-30.6 3.7-8.4 4.8-15.4 5.4-33.5.3-9.8.7-18.1.9-18.5.2-.3.7-3.5 1.1-7.1 1.2-11.7 2.5-18.8 6.1-33.5 10.2-41.7 29.3-80.5 56.4-114.5 8.7-10.8 28.9-31.7 39.5-40.7 24.1-20.5 53.6-38 83-49.3 6.1-2.3 11.9-4.6 13-5.1 4.9-2 32.3-9.1 40.5-10.4 1.9-.3 4.6-.7 6-1 1.4-.3 4.8-.7 7.5-1.1 2.8-.3 6.1-.7 7.5-.9 3.6-.6 17.7-1.5 30.5-2 14.3-.6 16.1-1 25.5-5.3 32.5-15 42.4-56.8 20-85.1-4.2-5.3-14.6-13.6-19-15.2-1.4-.5-3.4-1.4-4.5-1.9-6.1-2.7-11-3.4-25.8-3.5-8.7-.1-15.9 0-16 .1z"/><path d="M1293.8 1120.5c-.1.1-3.9.5-8.2.9-4.4.4-8.2.8-8.5 1-.3.2-2.8.7-5.6 1-9.3 1.3-26.3 6.2-39 11.3-7.6 3-25.5 12.1-27.6 13.9-.8.8-1.9 1.4-2.2 1.4-.4 0-4 2.3-8 5.2-27.2 19.5-49.2 44.8-63.2 72.8-9.5 19.1-17 43.7-19 62.3-.4 3.2-.8 6.8-1.1 8-1 5.5-.4 34.6 1 43.4.2 1.6.7 4.8 1.1 7.3.4 2.5 1.8 8.8 3.1 14.1 17.4 70.1 71.6 124.5 141.5 142.3 13.5 3.4 17.9 4.2 32.4 5.5 12 1.1 35.4.4 44-1.3 1.1-.2 4-.7 6.5-1.1 8.5-1.3 27.1-6.6 37.3-10.6 15.2-6 35.1-17.1 45.6-25.4 26.2-20.8 43.8-42 57.3-69 6.9-13.7 13.4-31 15.2-40.5.2-1.4 1.2-5.9 2.1-10 2.5-11.3 3-17.9 3-37 0-18.9-.7-26.8-3.4-40-12.5-59.4-51.9-109.8-106.6-136.4-15.7-7.6-40.9-15.4-55.5-17.1-3-.4-5.8-.9-6.3-1.2-.8-.5-35.3-1.3-35.9-.8zm26.2 112.3c24 4.3 43.6 17 56.4 36.7 10.5 16.1 14.6 30.7 14 49.4-1.3 40.6-31.8 74.5-72.4 80.3-14.1 2.1-26.6.7-40.2-4.2-33.1-12.1-55.1-43-55.2-77.5 0-13.2.8-18.6 4.1-28.5 10.3-30.6 37.8-53 69.8-56.7 2.8-.3 5.1-.6 5.2-.7.6-.5 13.4.4 18.3 1.2zM2413.9 1124.4c-.2.2-3.3.7-6.9 1-13 1.3-39.8 8.3-50.9 13.2-26.9 12-45.6 24.3-63.6 42.1-17.1 16.8-28.6 32.3-38.7 52.4-7.6 15.2-14.9 36-17.2 48.9-.2 1.4-.7 3.6-1 5-3.3 14.8-4 50.6-1.2 64.6.2 1.2.7 3.9 1 6 .4 2.2.8 4.6 1.1 5.4.2.8.6 2.7.9 4.1 1.3 7.5 6.9 25 11.2 34.7 6.9 15.7 18.7 35.3 28 46.5l2.3 2.8-12.6 20.7c-11.1 18.2-20.6 33.9-54.7 90-4.5 7.4-8.8 14.6-9.7 16-8.4 14-49 80.7-55.4 91.2-7.5 12.3-31.9 52.3-39.3 64.5-1.6 2.7-8.7 14.4-15.7 26-7 11.5-13.6 22.2-14.6 23.7s-1.9 3-1.9 3.2c0 .3-1.9 3.6-4.2 7.4-2.4 3.7-4.8 7.7-5.5 8.8-3.6 5.9-18.9 31.2-19.8 32.6-1 1.7-3.9 6.5-31.5 51.8-27.4 45.1-32.3 53.4-34.1 58.9-7.5 22.5-2.4 44.3 14.2 61.3 11.3 11.6 25.5 17.7 41.4 17.7 19.5.1 37.3-8.8 49-24.4 2.5-3.3 4.5-6.4 4.5-6.8 0-.4.9-2 1.9-3.5 1-1.5 5.7-9 10.4-16.7 14.8-24.5 56.7-93.6 63.7-105 3.7-6.1 8.6-14.2 10.9-18 4.2-6.9 18.1-29.8 48.6-80 28.2-46.3 34.6-57 35.8-59 .7-1.1 2.6-4.2 4.3-7 1.7-2.7 5.2-8.4 7.6-12.5 2.5-4.1 10.3-17 17.3-28.5 7.1-11.6 15.3-25.1 18.2-30 3-5 9.8-16.2 15.2-25 23-37.7 38.5-63.1 39.5-65 .6-1.1 4.7-7.9 9-15 4.4-7.2 8-13.1 8-13.2.1-.1 3.8.7 8.3 1.8 15.6 3.7 27.7 4.8 47.8 4.4 10.5-.2 20.1-.6 21.5-.9 1.3-.3 4.2-.8 6.5-1.2 28.4-4.1 59.9-17.3 84.5-35.2 12.1-8.9 20.5-16.5 36-33.1.8-.9 3.8-4.8 6.7-8.6 36.3-49.3 48.4-110.5 33.4-169.2-1.2-4.5-2.6-9.5-3.2-11-.6-1.6-1.2-3.5-1.4-4.4-.7-3.2-6.9-17.6-11.7-26.9-11.6-22.3-26.4-40.9-47.8-60-6.6-5.9-22.5-16.8-32.7-22.4-5.6-3.1-10.4-5.6-10.7-5.6-.3 0-3.1-1.2-6.3-2.6-10.5-4.8-28.9-10.6-41.3-12.9-3.5-.6-10.7-1.8-13-2.2-3.5-.4-41.7-1.2-42.1-.9zm35 119.6c26.7 5.5 48.8 24.6 58.7 50.7 1.3 3.4 2.6 7.5 2.9 9 .2 1.5.9 5 1.4 7.8.9 5 .7 19.6-.4 25-4.3 21.3-15.6 39.3-32.1 51.1-44.6 31.9-105.8 12.3-123.5-39.6-2.9-8.7-4-14.7-4.3-24.5-.2-4.5.1-7 1.8-18 .6-3.3 3.5-11.9 5.9-17.5 4-8.9 14.2-21.7 22.6-28.3 19-15 43.1-20.6 67-15.7z"/><path d="M1649.8 1260.5c-.2.2-2.3.6-4.8 1-2.5.3-8.3 2.4-12.9 4.7-11.1 5.3-20.1 14.2-25.3 24.8-4.8 10.1-5.7 14.8-6.3 33.2-.2 8.6-.7 17-.9 18.5-.3 1.5-.7 5.5-1.1 8.8-.3 3.3-.8 6.9-1 8-.2 1.1-.7 3.6-.9 5.5-1 7.1-2.7 14.8-5.7 26-11.8 44.3-33.8 85.5-63.9 119.4-11.8 13.4-30.5 30.8-42.6 39.6-3.2 2.4-6.1 4.6-6.4 4.9-.3.4-5 3.5-10.5 7s-11.1 7.2-12.5 8.1c-4.3 2.9-26.1 13.6-36 17.8-14.1 5.9-37 13-50.5 15.8-7 1.4-18.7 3.4-23 3.9-2.7.4-6 .8-7.3 1-3 .5-19.1 1.5-31.7 2-14.7.6-22.8 3.2-33.1 10.8-11.5 8.4-19.2 20.8-21.9 35.2-.6 3.2-.7 15-.1 17.5.1.8.6 3.3 1 5.5 2.6 13.5 15.2 29.3 28.7 35.9 10.4 5 17 6.3 32.9 6 31.3-.4 61.7-4.5 92.5-12.4 19.6-5 44.8-13.4 57-19 2.2-1 6.3-2.8 9-4 27.3-11.9 66.2-35.6 87-53.1 1.1-1 5.2-4.4 9.2-7.7 16.4-13.6 39.5-37.1 51.8-52.7 2.1-2.8 4.4-5.5 5-6 1-1 16.5-22.4 19.5-27 1.3-2 6.6-10.6 9.5-15.3 26.2-43.3 44.5-94 52.9-146.7.3-1.7 1-7.1 1.6-12 .6-5 1.3-10.6 1.5-12.5.3-1.9.8-12.5 1.1-23.5.6-16.7.4-21-1-26.3-4.3-16.7-15-30-29.9-37.1-4.5-2.1-10-4.2-12.2-4.6-4-.8-18.2-1.5-18.7-1z"/><path d="M1845 1261.6c-20 4.3-37 20.4-42 39.9-1.2 5-2 12.9-2.4 27.5-.4 11.3-.8 22.5-1.1 25-.7 8.1-1.6 16.4-2.1 21-.5 4.6-4.3 28.9-5 32.5-.2 1.1-.6 3.1-.9 4.5-.3 2-4.2 19.4-6 27-1 4.4-7.8 26.7-10.5 35-12.8 38.3-33.9 80.9-57.3 116-8.1 12.1-20.6 29.2-26.3 36-16.5 19.5-23 26.7-35.4 39-39.3 39.3-78.6 67.7-128.5 93-9.3 4.8-18.3 9.2-20 9.8-1.6.6-7.9 3.1-14 5.7-29 12.2-67.3 23.4-99.3 29.1-6.5 1.1-14.2 2.4-18.2 2.9-2.5.3-5.6.8-7 1-1.4.2-5.4.7-9 1-3.6.4-8.1.8-10 1-6.9.7-26.5 1.7-39.4 2-18.7.5-28.5 3.7-39.9 12.9-4.7 3.8-12.5 13.8-14.4 18.6-.7 1.9-1.8 4.2-2.3 5.2-1.8 3.3-3.2 15.2-2.7 23.2 1.6 23.5 17.9 43.2 41.2 49.7 5.4 1.5 34.9 1.8 52 .6 15-1.1 20.8-1.6 25-2.1 2.2-.3 6.7-.8 10-1.2 3.3-.3 6.7-.8 7.6-.9.9-.2 4-.6 7-1 19.6-2.4 62.8-11.9 84.4-18.5 16.5-5 45.9-15.2 52-18 1.1-.5 8.1-3.4 15.5-6.6 24-10.2 53.1-25.3 76.5-39.7 9.6-5.9 29.6-19 31.9-20.8.6-.5 7-5.2 14.1-10.5 45.2-33.6 92.4-80.5 122-121.5 2.2-3 4.2-5.6 4.5-5.9.4-.3 3.5-4.8 7.1-10 3.5-5.2 6.7-9.7 7-10 2.2-2 23.4-37 31.1-51.5 11.5-21.6 31.2-64.6 32.4-70.5 0-.3.6-1.9 1.3-3.5 6.2-14.9 19.5-59.2 23.5-78.6 3.4-16 5.6-27.1 6-30.4.4-2.2 1.1-6.5 1.6-9.5 1.3-7.8 1.8-10.7 2.5-17 .4-3 .8-6.6 1-8 .2-1.4.6-6.3 1-10.8.4-4.6.8-9.1 1-10 .6-3.2 1.7-30.7 1.8-42.2 0-14.4-1.3-21.6-5.8-30.6-11.2-22.8-36.6-35.2-61.5-29.8zM364.9 1568.9c-26 6.6-44.8 30.3-45.1 56.8-.1 13.2 2.6 21.8 12.6 39 4 7.1 13.2 23.1 20.5 35.8 7.2 12.6 13.6 23.7 14.1 24.5 2.3 3.9 14.6 25.1 17.3 30 1.6 3 3.6 6.2 4.3 7.1.8.8 1.4 1.8 1.4 2.2 0 .3 1.3 2.8 2.9 5.5 1.5 2.6 3.9 6.8 5.3 9.3 1.4 2.4 4.3 7.3 6.3 10.9 2.1 3.6 4.7 8.2 5.9 10.2 4.9 8.7 22.3 38.8 33.3 57.8 6.5 11.3 12.2 21.2 12.6 22 .4.8 1.7 3.1 2.8 5 2 3.3 23 39.6 26.8 46.3 4.3 7.6 21.3 36.9 23.1 39.9 1.1 1.8 2.3 3.9 2.6 4.6.4.8 4.5 8 9.2 16 4.6 8.1 9.6 16.7 11 19.2 1.4 2.5 3.6 6.2 4.9 8.2 1.2 2.1 2.3 4 2.3 4.2 0 .2 2.1 4 4.6 8.3 2.6 4.3 5.5 9.1 6.4 10.8.9 1.6 5.2 9.1 9.5 16.5s8.8 15.3 10 17.5c1.3 2.2 10.5 18.1 20.4 35.4 10 17.3 18.1 31.8 18.1 32.2 0 .5-1.8 2.7-4.1 5.1-5.4 5.7-17 21.1-22 29.3-19.2 31.7-29.3 67.8-29.3 104.5 0 9.4 1.1 26.7 1.8 27.8.2.4.7 3 1 5.8.3 2.7 1.9 10.2 3.5 16.5 12.2 47.2 41.4 88.5 82.1 116 19.9 13.5 48.5 25.5 70 29.5 1.4.2 3.4.6 4.6.9 3 .7 7.9 1.4 15.9 2.4 7.1.9 37 .7 43.5-.2 1.9-.3 5.8-.8 8.5-1.2 2.8-.4 7.9-1.3 11.5-2.2 3.6-.8 7.2-1.6 8-1.8 10.1-2.3 30.6-10.3 43-16.8 56.4-29.7 97.4-88.8 104.5-150.7.2-2.5.7-6.8 1.1-9.5.7-6.3.7-26.4-.1-33-1.3-12.1-1.6-14.4-3.1-22-3-15.3-6.1-25.4-11.9-38.9-16.3-38.2-41.7-68.2-76.7-91-22-14.3-54-26.3-77.8-29.1-2.5-.3-7.6-1-11.5-1.4-12.1-1.5-38.8-.5-51.3 2-3 .6-5.5.9-5.7.7-.3-.4-5.8-9.7-8.8-14.8-1.1-1.9-7.1-12.5-13.5-23.5-6.3-11-15.5-27-20.5-35.5-4.9-8.5-10-17.5-11.4-20-1.4-2.5-4.9-8.6-7.8-13.5-2.9-5-14.8-25.7-26.5-46-11.7-20.4-30.5-53-41.8-72.5-11.3-19.5-21.3-36.9-22.2-38.5-.9-1.7-6.1-10.7-11.5-20-14.3-24.8-28.4-49.3-31.4-54.6-3.9-6.9-26.1-45.2-27.2-46.9-.5-.8-5.9-10.3-12.1-21-6.1-10.7-16-28.1-22.1-38.5-6-10.5-12.3-21.5-14-24.5-7.4-13.3-15.9-26.8-19.4-30.6-14.6-15.8-37.6-22.7-58.4-17.5zm405.6 636c4.4 1.1 9.8 2.7 12 3.6 12.9 5.4 27 16.7 35 27.9 16.9 23.9 19.8 54.7 7.7 80.6-13.9 29.5-43.4 47.6-75.8 46.5-39-1.4-70.6-29.3-76.7-68-6.8-42.5 21.8-83.1 64.4-91.4 8.3-1.6 24.8-1.2 33.4.8zM1848.7 2085.2c-6.6.7-19.2 3-29.7 5.4-6.2 1.4-24.1 7.9-33.1 12-40.4 18.5-74.9 51.6-94.6 90.9-4.7 9.2-10.5 23.4-12.9 31.5l-1.3 4.5-220.8.2c-384.3.3-349 .1-357.4 2.4-44.1 12.2-59 65.8-27.6 98.9 9 9.5 20.7 15.6 33.7 17.6 3 .4 110.4.5 500.5.2l74-.1 4.1 9.9c11.1 26.9 24.2 47.1 43.4 66.5 29.3 29.8 66 49.1 108 56.8 13.3 2.5 54.6 2.8 67.5.5 46.3-8.2 86.3-30.2 117.2-64.7 23.4-26.1 42-64.5 47.3-97.7.7-4.1 1.4-8.4 1.6-9.5.7-3.7 1.7-21 1.6-27-.2-16.6-1.5-27-5.7-46.5-1.7-7.9-6.8-23.1-10.7-32-10.3-23.4-22.5-41.4-40.1-59.6-11-11.2-31.8-28.4-34.5-28.4-.7 0-1.2-.3-1.2-.8 0-1.4-19.9-11.9-32-16.9-14.1-5.9-35.2-11.7-46-12.8-2.5-.3-5.6-.8-7-1.1-4-1-35.7-1.1-44.3-.2zm31.8 119.2c20 2.4 40.9 14.9 53.7 32.3 10.3 14 15.1 28.7 15.2 46.3 0 13.1-.4 16.2-4 26.9-8.6 25.9-28.8 44.6-56.2 52.3-10.3 2.9-27.6 3.1-38.2.4-37.3-9.3-62.3-41.1-62.1-79 .2-48.5 42.4-85 91.6-79.2z"/></svg>