<?xml version="1.0" encoding="UTF-8" standalone="no"?>
<svg width="24px" height="24px" viewBox="0 0 24 24" version="1.1" xmlns="http://www.w3.org/2000/svg" xmlns:xlink="http://www.w3.org/1999/xlink">
    <!-- Generator: Sketch 43.2 (39069) - http://www.bohemiancoding.com/sketch -->
    <title>iconmonstr-plus-6</title>
    <desc>Created with Sketch.</desc>
    <defs></defs>
    <g id="Page-1" stroke="none" stroke-width="1" fill="none" fill-rule="evenodd">
        <g id="iconmonstr-plus-6" fill-rule="nonzero" fill="#FFFFFF">
            <path d="M12,2 C17.514,2 22,6.486 22,12 C22,17.514 17.514,22 12,22 C6.486,22 2,17.514 2,12 C2,6.486 6.486,2 12,2 Z M12,0 C5.373,0 0,5.373 0,12 C0,18.627 5.373,24 12,24 C18.627,24 24,18.627 24,12 C24,5.373 18.627,0 12,0 Z M18,13 L13,13 L13,18 L11,18 L11,13 L6,13 L6,11 L11,11 L11,6 L13,6 L13,11 L18,11 L18,13 Z" id="Shape"></path>
        </g>
    </g>
</svg>