
            <svg width="3147.87904760927" height="744.6264627402109" xmlns="http://www.w3.org/2000/svg" xmlns:xlink="http://www.w3.org/1999/xlink" version="1.1">
                <g transform="scale(7.393952380463503) translate(10, 10)">
                    <g id="SvgjsG1879" rel="mainfill" name="main_text" xmlns:name="mainText_mainfill" transform="translate(104.16098921741686,10.177749633789048)" fill="#ffffff"><path fill="#ffffff" d="M22.402 13.799999999999997 l0 32.2 l-6.118 0 l0 -0.966 s-3.22 1.518 -5.566 1.518 c-6.946 0 -8.97 -4.048 -8.97 -12.144 c0 -8.418 3.266 -11.96 9.522 -11.96 c1.702 0 4.968 0.644 4.968 0.644 l0 -9.292 l6.164 0 z M11.776 41.032 c2.162 0 4.462 -0.69 4.462 -0.69 l0 -12.098 s-2.53 -0.46 -4.508 -0.46 c-2.3 0 -3.726 1.978 -3.726 6.624 c0 4.692 0.874 6.624 3.772 6.624 z M45.724000000000004 30.176000000000002 l0 9.568 c0.092 1.38 0.276 1.932 1.518 2.162 l-0.184 4.646 c-3.082 0 -4.646 -0.322 -6.578 -1.61 c0 0 -3.312 1.61 -6.762 1.61 c-4.83 0 -7.13 -2.668 -7.13 -7.544 c0 -5.198 2.99 -6.67 8.05 -7.038 l4.922 -0.368 l0 -1.426 c0 -1.978 -0.874 -2.484 -2.714 -2.484 c-3.036 0 -8.648 0.368 -8.648 0.368 l-0.184 -4.278 s4.922 -1.334 9.338 -1.334 c5.98 0 8.372 2.346 8.372 7.728 z M39.56 35.88 l-4.186 0.368 c-1.61 0.138 -2.576 0.92 -2.576 2.576 c0 1.61 0.598 2.714 2.254 2.714 c1.978 0 4.508 -0.736 4.508 -0.736 l0 -4.922 z M64.354 28.244 l-5.658 0 l0 9.43 c0 2.3 0 3.358 1.932 3.358 c1.288 0 3.496 -0.092 3.496 -0.092 l0.276 4.922 s-3.082 0.69 -4.692 0.69 c-5.566 0 -7.176 -2.116 -7.176 -8.74 l0 -9.568 l-2.714 0 l0 -5.244 l2.714 0 l0 -6.394 l6.164 0 l0 6.394 l5.658 0 l0 5.244 z M85.974 30.176000000000002 l0 9.568 c0.092 1.38 0.276 1.932 1.518 2.162 l-0.184 4.646 c-3.082 0 -4.646 -0.322 -6.578 -1.61 c0 0 -3.312 1.61 -6.762 1.61 c-4.83 0 -7.13 -2.668 -7.13 -7.544 c0 -5.198 2.99 -6.67 8.05 -7.038 l4.922 -0.368 l0 -1.426 c0 -1.978 -0.874 -2.484 -2.714 -2.484 c-3.036 0 -8.648 0.368 -8.648 0.368 l-0.184 -4.278 s4.922 -1.334 9.338 -1.334 c5.98 0 8.372 2.346 8.372 7.728 z M79.81 35.88 l-4.186 0.368 c-1.61 0.138 -2.576 0.92 -2.576 2.576 c0 1.61 0.598 2.714 2.254 2.714 c1.978 0 4.508 -0.736 4.508 -0.736 l0 -4.922 z M102.994 22.448 c6.256 0 9.292 2.898 9.292 11.73 c0 9.89 -3.358 12.374 -11.454 12.374 c-2.208 0 -8.97 -0.644 -8.97 -0.644 l0 -32.108 l6.164 0 l0 9.89 s2.944 -1.242 4.968 -1.242 z M100.83200000000001 41.032 c4.232 0 5.198 -1.886 5.198 -6.854 c0 -4.646 -1.472 -6.21 -3.864 -6.21 c-1.84 0 -4.14 0.598 -4.14 0.598 l0 12.282 s2.116 0.184 2.806 0.184 z M116.88600000000001 46 l0 -23 l6.118 0 l0 2.438 s3.864 -2.3 7.36 -2.99 l0 6.21 c-4.048 0.782 -7.314 1.932 -7.314 1.932 l0 15.41 l-6.164 0 z M143.382 22.448 c8.004 0 10.58 4.922 10.58 12.006 s-2.576 12.098 -10.58 12.098 s-10.58 -5.014 -10.58 -12.098 s2.576 -12.006 10.58 -12.006 z M143.382 41.308 c3.404 0 4.324 -2.392 4.324 -6.854 s-0.92 -6.762 -4.324 -6.762 s-4.324 2.3 -4.324 6.762 s0.92 6.854 4.324 6.854 z M164.63400000000001 46 l-6.164 0 l0 -32.2 l6.164 0 l0 18.308 l2.346 -0.414 l4.554 -8.694 l6.9 0 l-5.98 10.902 l6.302 12.098 l-6.946 0 l-4.646 -8.97 l-2.53 0.414 l0 8.556 z M191.866 41.124 c3.772 0 8.51 -0.414 8.51 -0.414 l0.092 4.554 s-5.29 1.288 -9.568 1.288 c-6.946 0 -9.89 -3.45 -9.89 -11.73 c0 -8.188 3.45 -12.374 10.166 -12.374 c6.762 0 10.028 3.45 10.028 10.396 l-0.46 4.278 l-13.524 0 c0.046 2.76 1.334 4.002 4.646 4.002 z M187.17400000000004 32.43 l7.958 0 c0 -3.726 -1.058 -4.922 -3.956 -4.922 c-2.944 0 -3.956 1.426 -4.002 4.922 z M205.62000000000003 46 l0 -23 l6.118 0 l0 2.438 s3.864 -2.3 7.36 -2.99 l0 6.21 c-4.048 0.782 -7.314 1.932 -7.314 1.932 l0 15.41 l-6.164 0 z  M252.40200000000004 13.799999999999997 l0 32.2 l-6.118 0 l0 -0.966 s-3.22 1.518 -5.566 1.518 c-6.946 0 -8.97 -4.048 -8.97 -12.144 c0 -8.418 3.266 -11.96 9.522 -11.96 c1.702 0 4.968 0.644 4.968 0.644 l0 -9.292 l6.164 0 z M241.77600000000004 41.032 c2.162 0 4.462 -0.69 4.462 -0.69 l0 -12.098 s-2.53 -0.46 -4.508 -0.46 c-2.3 0 -3.726 1.978 -3.726 6.624 c0 4.692 0.874 6.624 3.772 6.624 z M275.72400000000005 30.176000000000002 l0 9.568 c0.092 1.38 0.276 1.932 1.518 2.162 l-0.184 4.646 c-3.082 0 -4.646 -0.322 -6.578 -1.61 c0 0 -3.312 1.61 -6.762 1.61 c-4.83 0 -7.13 -2.668 -7.13 -7.544 c0 -5.198 2.99 -6.67 8.05 -7.038 l4.922 -0.368 l0 -1.426 c0 -1.978 -0.874 -2.484 -2.714 -2.484 c-3.036 0 -8.648 0.368 -8.648 0.368 l-0.184 -4.278 s4.922 -1.334 9.338 -1.334 c5.98 0 8.372 2.346 8.372 7.728 z M269.56 35.88 l-4.186 0.368 c-1.61 0.138 -2.576 0.92 -2.576 2.576 c0 1.61 0.598 2.714 2.254 2.714 c1.978 0 4.508 -0.736 4.508 -0.736 l0 -4.922 z M290.996 22.448 c8.004 0 10.58 4.922 10.58 12.006 s-2.576 12.098 -10.58 12.098 s-10.58 -5.014 -10.58 -12.098 s2.576 -12.006 10.58 -12.006 z M290.996 41.308 c3.404 0 4.324 -2.392 4.324 -6.854 s-0.92 -6.762 -4.324 -6.762 s-4.324 2.3 -4.324 6.762 s0.92 6.854 4.324 6.854 z" style="fill: #ffffff;"/></g><defs id="SvgjsDefs1878"/><g id="SvgjsG1880" fill="#ffffff" rel="mainfill" name="symbol" xmlns:name="symbol_mainfill" transform="translate(-4.319556614089035,-10.334684773245499) scale(1.0015201510787706)"><path xmlns="http://www.w3.org/2000/svg" d="M82.796,39.013l-9.489-16.478c1.177-1.214,1.903-2.868,1.903-4.688c0-3.718-3.025-6.744-6.744-6.744  s-6.744,3.025-6.744,6.744c0,3.719,3.025,6.744,6.744,6.744c0.449,0,0.887-0.045,1.311-0.129l9.535,16.557  c0.372,0.646,1.048,1.008,1.743,1.008c0.341,0,0.686-0.087,1.002-0.269C83.02,41.204,83.35,39.975,82.796,39.013z M65.742,17.847  c0-1.502,1.223-2.724,2.725-2.724s2.725,1.222,2.725,2.724s-1.223,2.725-2.725,2.725S65.742,19.349,65.742,17.847z" fill="#ffffff" style="fill: #ffffff;"/><path xmlns="http://www.w3.org/2000/svg" d="M75.731,73.483l9.874-16.25c1.63,0.447,3.429,0.288,5.025-0.589c3.259-1.79,4.454-5.897,2.664-9.157  c-1.791-3.259-5.898-4.454-9.157-2.663c-3.259,1.79-4.454,5.897-2.664,9.156c0.216,0.394,0.466,0.756,0.744,1.088l-9.921,16.329  c-0.387,0.637-0.378,1.404-0.044,2.014c0.164,0.297,0.406,0.558,0.717,0.748C73.918,74.734,75.155,74.432,75.731,73.483z   M86.071,48.346c1.317-0.723,2.976-0.24,3.7,1.077c0.723,1.317,0.24,2.976-1.076,3.699c-1.316,0.723-2.976,0.24-3.699-1.076  C84.273,50.729,84.755,49.07,86.071,48.346z" fill="#ffffff" style="fill: #ffffff;"/><path xmlns="http://www.w3.org/2000/svg" d="M16.334,62.001l9.489,16.479c-1.176,1.214-1.903,2.867-1.903,4.688c0,3.719,3.025,6.744,6.744,6.744  c3.719,0,6.744-3.025,6.744-6.744c0-3.718-3.025-6.744-6.744-6.744c-0.449,0-0.887,0.046-1.311,0.13l-9.536-16.558  c-0.372-0.646-1.048-1.006-1.743-1.006c-0.34,0-0.686,0.086-1.001,0.268C16.111,59.811,15.78,61.04,16.334,62.001z M33.388,83.167  c0,1.502-1.223,2.725-2.725,2.725c-1.501,0-2.724-1.222-2.724-2.725c0-1.501,1.223-2.723,2.724-2.723  C32.166,80.444,33.388,81.666,33.388,83.167z" fill="#ffffff" style="fill: #ffffff;"/><path xmlns="http://www.w3.org/2000/svg" d="M23.667,27.531l-9.874,16.25c-1.631-0.447-3.43-0.288-5.026,0.589c-3.259,1.791-4.454,5.899-2.663,9.158  c1.79,3.259,5.897,4.454,9.157,2.664c3.26-1.791,4.455-5.898,2.664-9.158c-0.216-0.393-0.466-0.756-0.745-1.087l9.921-16.329  c0.387-0.637,0.378-1.404,0.044-2.013c-0.164-0.298-0.406-0.56-0.718-0.749C25.48,26.281,24.244,26.583,23.667,27.531z   M13.326,52.669c-1.316,0.723-2.976,0.241-3.699-1.076c-0.723-1.316-0.24-2.976,1.076-3.699c1.317-0.724,2.977-0.24,3.7,1.076  C15.126,50.287,14.644,51.946,13.326,52.669z" fill="#ffffff" style="fill: #ffffff;"/><path xmlns="http://www.w3.org/2000/svg" d="M55.991,16.189l-19.015-0.02c-0.463-1.626-1.532-3.082-3.109-3.992c-3.22-1.858-7.353-0.751-9.212,2.469  c-1.858,3.221-0.75,7.354,2.47,9.212s7.353,0.75,9.211-2.469c0.225-0.389,0.404-0.792,0.545-1.201l19.106,0.02  c0.746,0,1.396-0.404,1.744-1.007c0.17-0.294,0.268-0.637,0.268-1.002C58,17.091,57.101,16.19,55.991,16.189z M29.133,20.377  c-1.3-0.75-1.748-2.419-0.997-3.72c0.75-1.302,2.419-1.749,3.72-0.998s1.749,2.42,0.998,3.72  C32.104,20.681,30.434,21.128,29.133,20.377z" fill="#ffffff" style="fill: #ffffff;"/><path xmlns="http://www.w3.org/2000/svg" d="M40.876,83.386c0,0.365,0.098,0.707,0.268,1.002c0.348,0.602,0.999,1.007,1.745,1.006l19.106-0.019  c0.14,0.41,0.319,0.812,0.544,1.201c1.858,3.22,5.991,4.328,9.212,2.469c3.22-1.858,4.328-5.991,2.469-9.211  c-1.858-3.221-5.992-4.329-9.212-2.469c-1.576,0.91-2.646,2.365-3.108,3.991l-19.015,0.019  C41.774,81.375,40.875,82.276,40.876,83.386z M66.019,84.565c-0.75-1.3-0.303-2.97,0.998-3.721c1.3-0.751,2.97-0.304,3.722,0.997  c0.75,1.301,0.303,2.971-0.998,3.721C68.44,86.314,66.77,85.866,66.019,84.565z" fill="#ffffff" style="fill: #ffffff;"/><g xmlns="http://www.w3.org/2000/svg"><path d="M49.377,57.114c-3.64,0-6.602-2.962-6.602-6.602s2.962-6.602,6.602-6.602c3.641,0,6.602,2.962,6.602,6.602   S53.018,57.114,49.377,57.114z M49.377,47.661c-1.572,0-2.851,1.279-2.851,2.851c0,1.572,1.279,2.851,2.851,2.851   c1.572,0,2.851-1.279,2.851-2.851C52.228,48.94,50.949,47.661,49.377,47.661z" fill="#ffffff" style="fill: #ffffff;"/></g><g xmlns="http://www.w3.org/2000/svg"><path d="M37.561,52.388c-1.037,0-1.876-0.84-1.876-1.876c0-7.55,6.142-13.692,13.692-13.692c1.037,0,1.876,0.839,1.876,1.876   c0,1.035-0.839,1.875-1.876,1.875c-5.481,0-9.941,4.459-9.941,9.941C39.436,51.548,38.596,52.388,37.561,52.388z" fill="#ffffff" style="fill: #ffffff;"/></g><path xmlns="http://www.w3.org/2000/svg" fill="#ffffff" stroke="#ffffff" stroke-width="14" stroke-miterlimit="10" d="M37.561,50.512" style="fill: #ffffff;"/><path xmlns="http://www.w3.org/2000/svg" fill="#ffffff" stroke="#ffffff" stroke-width="14" stroke-miterlimit="10" d="M49.377,62.328" style="fill: #ffffff;"/><g xmlns="http://www.w3.org/2000/svg"><path d="M49.377,64.204c-1.036,0-1.875-0.839-1.875-1.875c0-1.035,0.84-1.875,1.875-1.875c5.481,0,9.94-4.46,9.94-9.941   c0-1.036,0.84-1.875,1.876-1.875s1.875,0.84,1.875,1.875C63.069,58.062,56.927,64.204,49.377,64.204z" fill="#ffffff" style="fill: #ffffff;"/></g><path xmlns="http://www.w3.org/2000/svg" fill="#ffffff" stroke="#ffffff" stroke-width="14" stroke-miterlimit="10" d="M61.193,50.512" style="fill: #ffffff;"/><path xmlns="http://www.w3.org/2000/svg" fill="#ffffff" stroke="#ffffff" stroke-width="14" stroke-miterlimit="10" d="M49.377,38.696" style="fill: #ffffff;"/><g xmlns="http://www.w3.org/2000/svg"><path d="M30.802,52.388c-1.035,0-1.875-0.84-1.875-1.876c0-11.276,9.175-20.451,20.452-20.451c1.036,0,1.876,0.84,1.876,1.875   c0,1.037-0.84,1.876-1.876,1.876c-9.208,0-16.7,7.491-16.7,16.699C32.678,51.548,31.839,52.388,30.802,52.388z" fill="#ffffff" style="fill: #ffffff;"/></g><path xmlns="http://www.w3.org/2000/svg" fill="#ffffff" stroke="#ffffff" stroke-width="14" stroke-miterlimit="10" d="M30.802,50.512" style="fill: #ffffff;"/><path xmlns="http://www.w3.org/2000/svg" fill="#ffffff" stroke="#ffffff" stroke-width="14" stroke-miterlimit="10" d="M49.378,69.087" style="fill: #ffffff;"/><g xmlns="http://www.w3.org/2000/svg"><path d="M49.378,70.963c-1.037,0-1.875-0.84-1.875-1.876s0.839-1.876,1.875-1.876c9.208,0,16.699-7.492,16.699-16.7   c0-1.036,0.84-1.875,1.876-1.875c1.035,0,1.875,0.84,1.875,1.875C69.828,61.789,60.654,70.963,49.378,70.963z" fill="#ffffff" style="fill: #ffffff;"/></g><path xmlns="http://www.w3.org/2000/svg" fill="#ffffff" stroke="#ffffff" stroke-width="14" stroke-miterlimit="10" d="M67.953,50.512" style="fill: #ffffff;"/><path xmlns="http://www.w3.org/2000/svg" fill="#ffffff" stroke="#ffffff" stroke-width="14" stroke-miterlimit="10" d="M49.378,31.936" style="fill: #ffffff;"/></g>
                </g>
            </svg>
        