<?xml version="1.0" encoding="UTF-8" standalone="no"?>
<svg width="659px" height="585px" viewBox="0 0 659 585" version="1.1" xmlns="http://www.w3.org/2000/svg" xmlns:xlink="http://www.w3.org/1999/xlink">
    <!-- Generator: Sketch 43.2 (39069) - http://www.bohemiancoding.com/sketch -->
    <title>databroker-logo-white</title>
    <desc>Created with Sketch.</desc>
    <defs></defs>
    <g id="Page-1" stroke="none" stroke-width="1" fill="none" fill-rule="evenodd">
        <g id="databroker-logo-white" transform="translate(-39.000000, -82.000000)">
            <g id="SvgjsG1880" transform="translate(0.000928, 0.525357)">
                <path d="M613.120302,288.898767 L542.852432,166.876009 C551.568344,157.886105 556.944513,145.637917 556.944513,132.160467 C556.944513,104.627962 534.543807,82.2198502 507.003896,82.2198502 C479.463986,82.2198502 457.063279,104.620557 457.063279,132.160467 C457.063279,159.700377 479.463986,182.101084 507.003896,182.101084 C510.328828,182.101084 513.572302,181.76785 516.712103,181.145814 L587.320612,303.753583 C590.075344,308.537337 595.081254,311.218017 600.227862,311.218017 C602.753033,311.218017 605.307824,310.573765 607.647865,309.22602 C614.779065,305.123544 617.222779,296.022562 613.120302,288.898767 Z M486.832153,132.160467 C486.832153,121.037868 495.888703,111.988723 507.011302,111.988723 C518.1339,111.988723 527.190451,121.037868 527.190451,132.160467 C527.190451,143.283066 518.1339,152.339616 507.011302,152.339616 C495.888703,152.339616 486.832153,143.283066 486.832153,132.160467 Z" id="Shape" fill="#FFFFFF" fill-rule="nonzero"></path>
                <path d="M560.802618,544.155746 L633.921487,423.821371 C645.991951,427.131492 659.313892,425.954067 671.132579,419.459713 C695.2661,406.204419 704.115305,375.791294 690.860011,351.650367 C677.597311,327.516845 647.184187,318.66764 623.050665,331.93034 C598.917143,345.185634 590.067938,375.598759 603.323233,399.732281 C604.922754,402.649926 606.774052,405.330606 608.832696,407.78913 L535.365783,528.708515 C532.499973,533.425623 532.56662,539.105405 535.039954,543.622572 C536.254406,545.821914 538.046463,547.75467 540.349477,549.161656 C547.377005,553.419642 556.537228,551.183274 560.802618,544.155746 Z M637.372307,358.011427 C647.124945,352.657473 659.410159,356.234181 664.771518,365.986819 C670.125472,375.739458 666.548765,388.024672 656.803532,393.378626 C647.058298,398.73258 634.765679,395.155872 629.411725,385.410639 C624.057771,375.658 627.627074,363.372786 637.372307,358.011427 Z" id="Shape" fill="#FFFFFF" fill-rule="nonzero"></path>
                <path d="M120.956411,459.129328 L191.224281,581.159492 C182.515775,590.149396 177.1322,602.390178 177.1322,615.875034 C177.1322,643.414944 199.532907,665.815651 227.072817,665.815651 C254.612727,665.815651 277.013434,643.414944 277.013434,615.875034 C277.013434,588.342529 254.612727,565.934417 227.072817,565.934417 C223.747886,565.934417 220.504411,566.275056 217.36461,566.897092 L146.748696,444.281918 C143.993964,439.498163 138.988054,436.832294 133.841446,436.832294 C131.32368,436.832294 128.761484,437.469141 126.428848,438.816886 C119.305053,442.911957 116.853935,452.012938 120.956411,459.129328 Z M247.244561,615.867628 C247.244561,626.990227 238.18801,636.046777 227.065412,636.046777 C215.950218,636.046777 206.893668,626.997632 206.893668,615.867628 C206.893668,604.752435 215.950218,595.70329 227.065412,595.70329 C238.195416,595.70329 247.244561,604.752435 247.244561,615.867628 Z" id="Shape" fill="#FFFFFF" fill-rule="nonzero"></path>
                <path d="M175.258686,203.872349 L102.139817,324.206724 C90.0619488,320.896603 76.7400079,322.074029 64.9213209,328.568383 C40.7877992,341.831082 31.9385944,372.251612 45.2012938,396.385134 C58.4565881,420.518655 88.8697129,429.36786 113.01064,416.112566 C137.151567,402.849867 146.000771,372.436742 132.738072,348.295815 C131.138551,345.385574 129.287252,342.697489 127.221204,340.246371 L200.688117,219.326986 C203.553926,214.609878 203.487279,208.930096 201.013945,204.420334 C199.799494,202.213586 198.007437,200.273426 195.697017,198.873845 C188.6843,194.615859 179.531482,196.852227 175.258686,203.872349 Z M98.6815927,390.024074 C88.9363596,395.378028 76.6437404,391.808725 71.2897863,382.056087 C65.9358323,372.310854 69.5125402,360.018234 79.2577732,354.66428 C89.0104115,349.302921 101.303031,352.887034 106.656985,362.632267 C112.010939,372.384905 108.441636,384.670119 98.6815927,390.024074 Z" id="Shape" fill="#FFFFFF" fill-rule="nonzero"></path>
                <path d="M414.624122,119.882658 L273.814391,119.734554 C270.385787,107.693712 262.469636,96.9117517 250.791648,90.1730267 C226.946929,76.4141794 196.341269,84.6117273 182.575016,108.456447 C168.816169,132.308571 177.021122,162.914231 200.865841,176.673078 C224.71056,190.431925 255.31622,182.226972 269.075068,158.389658 C270.741236,155.509038 272.066765,152.524746 273.110897,149.496022 L414.594502,149.644126 C420.118775,149.644126 424.93215,146.652428 427.509157,142.187097 C428.76804,140.009971 429.493749,137.46999 429.493749,134.767095 C429.501154,126.562142 422.843886,119.890063 414.624122,119.882658 Z M215.735467,150.895604 C206.108717,145.341709 202.791191,132.982443 208.352491,123.348288 C213.906385,113.706728 226.265651,110.396607 235.899806,115.957906 C245.533961,121.519206 248.851487,133.878472 243.290188,143.505222 C237.736294,153.146782 225.369623,156.456903 215.735467,150.895604 Z" id="Shape" fill="#FFFFFF" fill-rule="nonzero"></path>
                <path d="M302.694641,617.489366 C302.694641,620.192261 303.42035,622.724837 304.679232,624.909368 C307.256239,629.367294 312.077019,632.366397 317.601293,632.358992 L459.084897,632.218293 C460.121624,635.254422 461.447153,638.231309 463.113322,641.111929 C476.872169,664.956648 507.477829,673.161601 531.329953,659.395349 C555.174672,645.636502 563.379625,615.030842 549.613373,591.186122 C535.854526,567.333998 505.241461,559.129045 481.396741,572.902703 C469.726158,579.641428 461.802603,590.415982 458.381404,602.456825 L317.571672,602.597524 C309.344503,602.597524 302.687235,609.269602 302.694641,617.489366 Z M488.883391,626.220087 C483.329497,616.593337 486.639618,604.226666 496.273773,598.665367 C505.900523,593.104067 518.267194,596.414188 523.835898,606.048343 C529.389793,615.682499 526.079672,628.04917 516.445517,633.603064 C506.811361,639.171769 494.44469,635.854242 488.883391,626.220087 Z" id="Shape" fill="#FFFFFF" fill-rule="nonzero"></path>
                <g id="Group" transform="translate(311.018077, 318.423269)" fill-rule="nonzero" fill="#FFFFFF">
                    <path d="M54.6281036,104.516884 C27.6732036,104.516884 5.73902404,82.5827046 5.73902404,55.6278046 C5.73902404,28.6729046 27.6732036,6.738725 54.6281036,6.738725 C81.5904088,6.738725 103.517183,28.6729046 103.517183,55.6278046 C103.517183,82.5827046 81.5904088,104.516884 54.6281036,104.516884 Z M54.6281036,34.5156013 C42.9871413,34.5156013 33.5159004,43.9868423 33.5159004,55.6278046 C33.5159004,67.2687669 42.9871413,76.7400079 54.6281036,76.7400079 C66.2690659,76.7400079 75.7403069,67.2687669 75.7403069,55.6278046 C75.7403069,43.9868423 66.2690659,34.5156013 54.6281036,34.5156013 Z" id="Shape"></path>
                </g>
                <g id="Group" transform="translate(259.181731, 266.586923)" fill-rule="nonzero" fill="#FFFFFF">
                    <path d="M18.9646975,121.356291 C11.2855131,121.356291 5.07255673,115.13593 5.07255673,107.464151 C5.07255673,51.5549488 50.5552479,6.07225769 106.46445,6.07225769 C114.143634,6.07225769 120.356591,12.285214 120.356591,19.9643985 C120.356591,27.6287725 114.143634,33.849134 106.46445,33.849134 C65.8765907,33.849134 32.8494331,66.8688865 32.8494331,107.464151 C32.8494331,115.13593 26.6290715,121.356291 18.9646975,121.356291 Z" id="Shape"></path>
                </g>
                <g id="Group"></g>
                <g id="Group"></g>
                <g id="Group" transform="translate(348.044038, 355.449231)" fill-rule="nonzero" fill="#FFFFFF">
                    <path d="M17.6021421,119.993736 C9.93036288,119.993736 3.71740654,113.78078 3.71740654,106.109001 C3.71740654,98.4446265 9.93776807,92.224265 17.6021421,92.224265 C58.1900011,92.224265 91.2097536,59.1971073 91.2097536,18.6092483 C91.2097536,10.937469 97.4301152,4.72451269 105.101894,4.72451269 C112.773674,4.72451269 118.98663,10.9448742 118.98663,18.6092483 C118.994035,74.511045 73.511344,119.993736 17.6021421,119.993736 Z" id="Shape"></path>
                </g>
                <g id="Group"></g>
                <g id="Group"></g>
                <g id="Group" transform="translate(207.345385, 222.155769)" fill-rule="nonzero" fill="#FFFFFF">
                    <path d="M20.7493488,165.787445 C13.0849748,165.787445 6.86461327,159.567084 6.86461327,151.895305 C6.86461327,68.3943561 74.8072527,0.451716731 158.315606,0.451716731 C165.987386,0.451716731 172.207747,6.67207827 172.207747,14.3364523 C172.207747,22.0156367 165.987386,28.2285931 158.315606,28.2285931 C90.1285955,28.2285931 34.6488948,83.7008886 34.6488948,151.887899 C34.6414896,159.567084 28.4285333,165.787445 20.7493488,165.787445 Z" id="Shape"></path>
                </g>
                <g id="Group"></g>
                <g id="Group"></g>
                <g id="Group" transform="translate(348.044038, 355.449231)" fill-rule="nonzero" fill="#FFFFFF">
                    <path d="M17.6095473,170.045431 C9.93036288,170.045431 3.72481173,163.825069 3.72481173,156.15329 C3.72481173,148.481511 9.93776807,142.261149 17.6095473,142.261149 C85.796558,142.261149 141.268854,86.7814486 141.268854,18.5944379 C141.268854,10.9226587 147.489215,4.70970231 155.160994,4.70970231 C162.825368,4.70970231 169.04573,10.9300638 169.04573,18.5944379 C169.04573,102.110197 101.110496,170.045431 17.6095473,170.045431 Z" id="Shape"></path>
                </g>
                <g id="Group"></g>
                <g id="Group"></g>
            </g>
        </g>
    </g>
</svg>