<?xml version="1.0" encoding="UTF-8" standalone="no"?>
<svg width="2993px" height="585px" viewBox="0 0 2993 585" version="1.1" xmlns="http://www.w3.org/2000/svg" xmlns:xlink="http://www.w3.org/1999/xlink">
    <!-- Generator: Sketch 43.2 (39069) - http://www.bohemiancoding.com/sketch -->
    <title>databroker-logo-white</title>
    <desc>Created with Sketch.</desc>
    <defs></defs>
    <g id="Desktop" stroke="none" stroke-width="1" fill="none" fill-rule="evenodd">
        <g id="databroker-logo-white" fill-rule="nonzero" fill="#FFFFFF">
            <g id="SvgjsG1879" transform="translate(770.494870, 166.314701)">
                <path d="M158.245369,5.9151619 L158.245369,244.000429 L113.009168,244.000429 L113.009168,236.857871 C113.009168,236.857871 89.2006415,248.08189 71.8544292,248.08189 C20.496036,248.08189 5.53067638,218.151171 5.53067638,158.289733 C5.53067638,96.0474414 29.6793249,69.8580621 75.9358909,69.8580621 C88.5203979,69.8580621 112.669046,74.6197674 112.669046,74.6197674 L112.669046,5.9151619 L158.245369,5.9151619 L158.245369,5.9151619 Z M79.6772309,207.267273 C95.6629559,207.267273 112.669046,202.165446 112.669046,202.165446 L112.669046,112.71341 C112.669046,112.71341 93.9623469,109.312192 79.337109,109.312192 C62.3310186,109.312192 51.7872425,123.93743 51.7872425,158.289733 C51.7872425,192.982157 58.2495569,207.267273 79.6772309,207.267273 L79.6772309,207.267273 Z M330.687126,126.998526 L330.687126,197.743862 C331.36737,207.947517 332.727857,212.028978 341.911146,213.729588 L340.550659,248.08189 C317.762498,248.08189 306.198356,245.701038 291.91324,236.177627 C291.91324,236.177627 267.42447,248.08189 241.915334,248.08189 C206.202544,248.08189 189.196454,228.354825 189.196454,192.301914 C189.196454,153.868149 211.304371,142.984251 248.71777,140.263277 L285.110804,137.542302 L285.110804,126.998526 C285.110804,112.373288 278.648489,108.631948 265.043617,108.631948 C242.595578,108.631948 201.100717,111.352923 201.100717,111.352923 L199.74023,79.7215946 C199.74023,79.7215946 236.133263,69.8580621 268.784957,69.8580621 C313.000792,69.8580621 330.687126,87.2042744 330.687126,126.998526 L330.687126,126.998526 Z M285.110804,169.17363 L254.159719,171.894605 C242.255456,172.91497 235.112898,178.697041 235.112898,190.941426 C235.112898,202.84569 239.534481,211.008613 251.778866,211.008613 C266.404104,211.008613 285.110804,205.566664 285.110804,205.566664 L285.110804,169.17363 L285.110804,169.17363 Z M468.436459,112.71341 L426.601477,112.71341 L426.601477,182.438381 C426.601477,199.444472 426.601477,207.267273 440.886593,207.267273 C450.410003,207.267273 466.73585,206.58703 466.73585,206.58703 L468.776581,242.980063 C468.776581,242.980063 445.98842,248.08189 434.084156,248.08189 C392.929417,248.08189 381.025154,232.436287 381.025154,183.458746 L381.025154,112.71341 L360.957967,112.71341 L360.957967,73.9395238 L381.025154,73.9395238 L381.025154,26.6625923 L426.601477,26.6625923 L426.601477,73.9395238 L468.436459,73.9395238 L468.436459,112.71341 L468.436459,112.71341 Z M628.29371,126.998526 L628.29371,197.743862 C628.973953,207.947517 630.33444,212.028978 639.517729,213.729588 L638.157242,248.08189 C615.369081,248.08189 603.804939,245.701038 589.519823,236.177627 C589.519823,236.177627 565.031053,248.08189 539.521917,248.08189 C503.809127,248.08189 486.803037,228.354825 486.803037,192.301914 C486.803037,153.868149 508.910954,142.984251 546.324353,140.263277 L582.717387,137.542302 L582.717387,126.998526 C582.717387,112.373288 576.255073,108.631948 562.6502,108.631948 C540.202161,108.631948 498.7073,111.352923 498.7073,111.352923 L497.346813,79.7215946 C497.346813,79.7215946 533.739847,69.8580621 566.39154,69.8580621 C610.607375,69.8580621 628.29371,87.2042744 628.29371,126.998526 L628.29371,126.998526 Z M582.717387,169.17363 L551.766302,171.894605 C539.862039,172.91497 532.719481,178.697041 532.719481,190.941426 C532.719481,202.84569 537.141065,211.008613 549.38545,211.008613 C564.010688,211.008613 582.717387,205.566664 582.717387,205.566664 L582.717387,169.17363 L582.717387,169.17363 Z M754.138779,69.8580621 C800.395345,69.8580621 822.843385,91.2857361 822.843385,156.589124 C822.843385,229.715313 798.014493,248.08189 738.153054,248.08189 C721.827207,248.08189 671.829301,243.320185 671.829301,243.320185 L671.829301,5.9151619 L717.405624,5.9151619 L717.405624,79.0413509 C717.405624,79.0413509 739.173419,69.8580621 754.138779,69.8580621 L754.138779,69.8580621 Z M738.153054,207.267273 C769.444261,207.267273 776.586819,193.322279 776.586819,156.589124 C776.586819,122.236821 765.702921,110.672679 748.016587,110.672679 C734.411714,110.672679 717.405624,115.094263 717.405624,115.094263 L717.405624,205.906786 C717.405624,205.906786 733.051227,207.267273 738.153054,207.267273 L738.153054,207.267273 Z M856.855566,244.000429 L856.855566,73.9395238 L902.091766,73.9395238 L902.091766,91.9659797 C902.091766,91.9659797 930.661998,74.9598892 956.511256,69.8580621 L956.511256,115.774506 C926.580537,121.556577 902.431888,130.059622 902.431888,130.059622 L902.431888,244.000429 L856.855566,244.000429 Z M1052.76573,69.8580621 C1111.94692,69.8580621 1130.99374,106.251096 1130.99374,158.629854 C1130.99374,211.008613 1111.94692,248.08189 1052.76573,248.08189 C993.584533,248.08189 974.537712,211.008613 974.537712,158.629854 C974.537712,106.251096 993.584533,69.8580621 1052.76573,69.8580621 Z M1052.76573,209.308004 C1077.93474,209.308004 1084.73718,191.62167 1084.73718,158.629854 C1084.73718,125.638039 1077.93474,108.631948 1052.76573,108.631948 C1027.59671,108.631948 1020.79428,125.638039 1020.79428,158.629854 C1020.79428,191.62167 1027.59671,209.308004 1052.76573,209.308004 Z M1209.902,244.000429 L1164.32568,244.000429 L1164.32568,5.9151619 L1209.902,5.9151619 L1209.902,141.283642 L1227.24822,138.222546 L1260.92028,73.9395238 L1311.93855,73.9395238 L1267.72271,154.548393 L1314.3194,244.000429 L1262.96101,244.000429 L1228.6087,177.676676 L1209.902,180.737772 L1209.902,244.000429 L1209.902,244.000429 Z M1411.25412,207.947517 C1439.1441,207.947517 1474.17665,204.88642 1474.17665,204.88642 L1474.85689,238.55848 C1474.85689,238.55848 1435.74289,248.08189 1404.11156,248.08189 C1352.75316,248.08189 1330.98537,222.572755 1330.98537,161.350829 C1330.98537,100.809147 1356.4945,69.8580621 1406.15229,69.8580621 C1456.15019,69.8580621 1480.29884,95.3671978 1480.29884,146.725591 L1476.89762,178.356919 L1376.90181,178.356919 C1377.24193,198.764228 1386.76534,207.947517 1411.25412,207.947517 L1411.25412,207.947517 Z M1376.56169,143.664495 L1435.40276,143.664495 C1435.40276,116.114628 1427.57996,107.271461 1406.15229,107.271461 C1384.38449,107.271461 1376.90181,117.815237 1376.56169,143.664495 Z M1512.95054,244.000429 L1512.95054,73.9395238 L1558.18674,73.9395238 L1558.18674,91.9659797 C1558.18674,91.9659797 1586.75697,74.9598892 1612.60623,69.8580621 L1612.60623,115.774506 C1582.67551,121.556577 1558.52686,130.059622 1558.52686,130.059622 L1558.52686,244.000429 L1512.95054,244.000429 L1512.95054,244.000429 Z M1858.85442,5.9151619 L1858.85442,244.000429 L1813.61822,244.000429 L1813.61822,236.857871 C1813.61822,236.857871 1789.80969,248.08189 1772.46348,248.08189 C1721.10508,248.08189 1706.13972,218.151171 1706.13972,158.289733 C1706.13972,96.0474414 1730.28837,69.8580621 1776.54494,69.8580621 C1789.12945,69.8580621 1813.27809,74.6197674 1813.27809,74.6197674 L1813.27809,5.9151619 L1858.85442,5.9151619 L1858.85442,5.9151619 Z M1780.28628,207.267273 C1796.272,207.267273 1813.27809,202.165446 1813.27809,202.165446 L1813.27809,112.71341 C1813.27809,112.71341 1794.57139,109.312192 1779.94616,109.312192 C1762.94007,109.312192 1752.39629,123.93743 1752.39629,158.289733 C1752.39629,192.982157 1758.8586,207.267273 1780.28628,207.267273 L1780.28628,207.267273 Z M2031.29617,126.998526 L2031.29617,197.743862 C2031.97642,207.947517 2033.3369,212.028978 2042.52019,213.729588 L2041.15971,248.08189 C2018.37155,248.08189 2006.8074,245.701038 1992.52229,236.177627 C1992.52229,236.177627 1968.03352,248.08189 1942.52438,248.08189 C1906.81159,248.08189 1889.8055,228.354825 1889.8055,192.301914 C1889.8055,153.868149 1911.91342,142.984251 1949.32682,140.263277 L1985.71985,137.542302 L1985.71985,126.998526 C1985.71985,112.373288 1979.25754,108.631948 1965.65266,108.631948 C1943.20463,108.631948 1901.70976,111.352923 1901.70976,111.352923 L1900.34928,79.7215946 C1900.34928,79.7215946 1936.74231,69.8580621 1969.394,69.8580621 C2013.60984,69.8580621 2031.29617,87.2042744 2031.29617,126.998526 L2031.29617,126.998526 Z M1985.71985,169.17363 L1954.76877,171.894605 C1942.8645,172.91497 1935.72195,178.697041 1935.72195,190.941426 C1935.72195,202.84569 1940.14353,211.008613 1952.38791,211.008613 C1967.01315,211.008613 1985.71985,205.566664 1985.71985,205.566664 L1985.71985,169.17363 L1985.71985,169.17363 Z M2144.21661,69.8580621 C2203.39781,69.8580621 2222.44463,106.251096 2222.44463,158.629854 C2222.44463,211.008613 2203.39781,248.08189 2144.21661,248.08189 C2085.03542,248.08189 2065.9886,211.008613 2065.9886,158.629854 C2065.9886,106.251096 2085.03542,69.8580621 2144.21661,69.8580621 Z M2144.21661,209.308004 C2169.38563,209.308004 2176.18806,191.62167 2176.18806,158.629854 C2176.18806,125.638039 2169.38563,108.631948 2144.21661,108.631948 C2119.0476,108.631948 2112.24516,125.638039 2112.24516,158.629854 C2112.24516,191.62167 2119.0476,209.308004 2144.21661,209.308004 Z" id="Shape"></path>
            </g>
            <g id="SvgjsG1880" transform="translate(0.000928, 0.525357)">
                <path d="M574.120302,206.898767 L503.852432,84.8760086 C512.568344,75.8861051 517.944513,63.6379171 517.944513,50.1604671 C517.944513,22.6279621 495.543807,0.219850164 468.003896,0.219850164 C440.463986,0.219850164 418.063279,22.6205569 418.063279,50.1604671 C418.063279,77.7003773 440.463986,100.101084 468.003896,100.101084 C471.328828,100.101084 474.572302,99.7678503 477.712103,99.1458142 L548.320612,221.753583 C551.075344,226.537337 556.081254,229.218017 561.227862,229.218017 C563.753033,229.218017 566.307824,228.573765 568.647865,227.22602 C575.779065,223.123544 578.222779,214.022562 574.120302,206.898767 Z M447.832153,50.1604671 C447.832153,39.0378682 456.888703,29.9887232 468.011302,29.9887232 C479.1339,29.9887232 488.190451,39.0378682 488.190451,50.1604671 C488.190451,61.2830659 479.1339,70.3396161 468.011302,70.3396161 C456.888703,70.3396161 447.832153,61.2830659 447.832153,50.1604671 Z" id="Shape"></path>
                <path d="M521.802618,462.155746 L594.921487,341.821371 C606.991951,345.131492 620.313892,343.954067 632.132579,337.459713 C656.2661,324.204419 665.115305,293.791294 651.860011,269.650367 C638.597311,245.516845 608.184187,236.66764 584.050665,249.93034 C559.917143,263.185634 551.067938,293.598759 564.323233,317.732281 C565.922754,320.649926 567.774052,323.330606 569.832696,325.78913 L496.365783,446.708515 C493.499973,451.425623 493.56662,457.105405 496.039954,461.622572 C497.254406,463.821914 499.046463,465.75467 501.349477,467.161656 C508.377005,471.419642 517.537228,469.183274 521.802618,462.155746 Z M598.372307,276.011427 C608.124945,270.657473 620.410159,274.234181 625.771518,283.986819 C631.125472,293.739458 627.548765,306.024672 617.803532,311.378626 C608.058298,316.73258 595.765679,313.155872 590.411725,303.410639 C585.057771,293.658 588.627074,281.372786 598.372307,276.011427 Z" id="Shape"></path>
                <path d="M81.9564111,377.129328 L152.224281,499.159492 C143.515775,508.149396 138.1322,520.390178 138.1322,533.875034 C138.1322,561.414944 160.532907,583.815651 188.072817,583.815651 C215.612727,583.815651 238.013434,561.414944 238.013434,533.875034 C238.013434,506.342529 215.612727,483.934417 188.072817,483.934417 C184.747886,483.934417 181.504411,484.275056 178.36461,484.897092 L107.748696,362.281918 C104.993964,357.498163 99.9880544,354.832294 94.8414457,354.832294 C92.3236803,354.832294 89.7614838,355.469141 87.4288482,356.816886 C80.3050532,360.911957 77.8539346,370.012938 81.9564111,377.129328 Z M208.244561,533.867628 C208.244561,544.990227 199.18801,554.046777 188.065412,554.046777 C176.950218,554.046777 167.893668,544.997632 167.893668,533.867628 C167.893668,522.752435 176.950218,513.70329 188.065412,513.70329 C199.195416,513.70329 208.244561,522.752435 208.244561,533.867628 Z" id="Shape"></path>
                <path d="M136.258686,121.872349 L63.1398175,242.206724 C51.0619488,238.896603 37.7400079,240.074029 25.9213209,246.568383 C1.78779922,259.831082 -7.06140559,290.251612 6.20129383,314.385134 C19.4565881,338.518655 49.8697129,347.36786 74.0106398,334.112566 C98.1515667,320.849867 107.000771,290.436742 93.7380721,266.295815 C92.1385505,263.385574 90.2872525,260.697489 88.2212038,258.246371 L161.688117,137.326986 C164.553926,132.609878 164.487279,126.930096 162.013945,122.420334 C160.799494,120.213586 159.007437,118.273426 156.697017,116.873845 C149.6843,112.615859 140.531482,114.852227 136.258686,121.872349 Z M59.6815927,308.024074 C49.9363596,313.378028 37.6437404,309.808725 32.2897863,300.056087 C26.9358323,290.310854 30.5125402,278.018234 40.2577732,272.66428 C50.0104115,267.302921 62.3030307,270.887034 67.6569848,280.632267 C73.0109388,290.384905 69.4416361,302.670119 59.6815927,308.024074 Z" id="Shape"></path>
                <path d="M375.624122,37.8826582 L234.814391,37.7345544 C231.385787,25.6937117 223.469636,14.9117517 211.791648,8.1730267 C187.946929,-5.5858206 157.341269,2.61172728 143.575016,26.4564465 C129.816169,50.3085709 138.021122,80.9142307 161.865841,94.673078 C185.71056,108.431925 216.31622,100.226972 230.075068,76.3896582 C231.741236,73.5090384 233.066765,70.5247459 234.110897,67.4960223 L375.594502,67.6441261 C381.118775,67.6441261 385.93215,64.6524284 388.509157,60.1870975 C389.76804,58.0099709 390.493749,55.46999 390.493749,52.7670948 C390.501154,44.5621417 383.843886,37.8900634 375.624122,37.8826582 Z M176.735467,68.8956036 C167.108717,63.3417094 163.791191,50.9824434 169.352491,41.3482882 C174.906385,31.7067278 187.265651,28.3966069 196.899806,33.9579063 C206.533961,39.5192057 209.851487,51.8784717 204.290188,61.5052217 C198.736294,71.1467821 186.369623,74.456903 176.735467,68.8956036 Z" id="Shape"></path>
                <path d="M263.694641,535.489366 C263.694641,538.192261 264.42035,540.724837 265.679232,542.909368 C268.256239,547.367294 273.077019,550.366397 278.601293,550.358992 L420.084897,550.218293 C421.121624,553.254422 422.447153,556.231309 424.113322,559.111929 C437.872169,582.956648 468.477829,591.161601 492.329953,577.395349 C516.174672,563.636502 524.379625,533.030842 510.613373,509.186122 C496.854526,485.333998 466.241461,477.129045 442.396741,490.902703 C430.726158,497.641428 422.802603,508.415982 419.381404,520.456825 L278.571672,520.597524 C270.344503,520.597524 263.687235,527.269602 263.694641,535.489366 Z M449.883391,544.220087 C444.329497,534.593337 447.639618,522.226666 457.273773,516.665367 C466.900523,511.104067 479.267194,514.414188 484.835898,524.048343 C490.389793,533.682499 487.079672,546.04917 477.445517,551.603064 C467.811361,557.171769 455.44469,553.854242 449.883391,544.220087 Z" id="Shape"></path>
                <g id="Group" transform="translate(272.018077, 236.423269)">
                    <path d="M54.6281036,104.516884 C27.6732036,104.516884 5.73902404,82.5827046 5.73902404,55.6278046 C5.73902404,28.6729046 27.6732036,6.738725 54.6281036,6.738725 C81.5904088,6.738725 103.517183,28.6729046 103.517183,55.6278046 C103.517183,82.5827046 81.5904088,104.516884 54.6281036,104.516884 Z M54.6281036,34.5156013 C42.9871413,34.5156013 33.5159004,43.9868423 33.5159004,55.6278046 C33.5159004,67.2687669 42.9871413,76.7400079 54.6281036,76.7400079 C66.2690659,76.7400079 75.7403069,67.2687669 75.7403069,55.6278046 C75.7403069,43.9868423 66.2690659,34.5156013 54.6281036,34.5156013 Z" id="Shape"></path>
                </g>
                <g id="Group" transform="translate(220.181731, 184.586923)">
                    <path d="M18.9646975,121.356291 C11.2855131,121.356291 5.07255673,115.13593 5.07255673,107.464151 C5.07255673,51.5549488 50.5552479,6.07225769 106.46445,6.07225769 C114.143634,6.07225769 120.356591,12.285214 120.356591,19.9643985 C120.356591,27.6287725 114.143634,33.849134 106.46445,33.849134 C65.8765907,33.849134 32.8494331,66.8688865 32.8494331,107.464151 C32.8494331,115.13593 26.6290715,121.356291 18.9646975,121.356291 Z" id="Shape"></path>
                </g>
                <g id="Group" transform="translate(309.044038, 273.449231)">
                    <path d="M17.6021421,119.993736 C9.93036288,119.993736 3.71740654,113.78078 3.71740654,106.109001 C3.71740654,98.4446265 9.93776807,92.224265 17.6021421,92.224265 C58.1900011,92.224265 91.2097536,59.1971073 91.2097536,18.6092483 C91.2097536,10.937469 97.4301152,4.72451269 105.101894,4.72451269 C112.773674,4.72451269 118.98663,10.9448742 118.98663,18.6092483 C118.994035,74.511045 73.511344,119.993736 17.6021421,119.993736 Z" id="Shape"></path>
                </g>
                <g id="Group" transform="translate(168.345385, 140.155769)">
                    <path d="M20.7493488,165.787445 C13.0849748,165.787445 6.86461327,159.567084 6.86461327,151.895305 C6.86461327,68.3943561 74.8072527,0.451716731 158.315606,0.451716731 C165.987386,0.451716731 172.207747,6.67207827 172.207747,14.3364523 C172.207747,22.0156367 165.987386,28.2285931 158.315606,28.2285931 C90.1285955,28.2285931 34.6488948,83.7008886 34.6488948,151.887899 C34.6414896,159.567084 28.4285333,165.787445 20.7493488,165.787445 Z" id="Shape"></path>
                </g>
                <g id="Group" transform="translate(309.044038, 273.449231)">
                    <path d="M17.6095473,170.045431 C9.93036288,170.045431 3.72481173,163.825069 3.72481173,156.15329 C3.72481173,148.481511 9.93776807,142.261149 17.6095473,142.261149 C85.796558,142.261149 141.268854,86.7814486 141.268854,18.5944379 C141.268854,10.9226587 147.489215,4.70970231 155.160994,4.70970231 C162.825368,4.70970231 169.04573,10.9300638 169.04573,18.5944379 C169.04573,102.110197 101.110496,170.045431 17.6095473,170.045431 Z" id="Shape"></path>
                </g>
            </g>
        </g>
    </g>
</svg>