<?xml version="1.0" encoding="UTF-8" standalone="no"?>
<svg width="24px" height="24px" viewBox="0 0 24 24" version="1.1" xmlns="http://www.w3.org/2000/svg" xmlns:xlink="http://www.w3.org/1999/xlink">
    <!-- Generator: Sketch 43.2 (39069) - http://www.bohemiancoding.com/sketch -->
    <title>iconmonstr-shop-13</title>
    <desc>Created with Sketch.</desc>
    <defs></defs>
    <g id="Page-1" stroke="none" stroke-width="1" fill="none" fill-rule="evenodd">
        <g id="iconmonstr-shop-13" fill-rule="nonzero" fill="#FFFFFF">
            <path d="M10,9 L10,7.902 L11.047,3 L12.952,3 L14,7.9 L14,8.998 C14,10.065 13.067,11 12,11 C10.933,11 10,10.067 10,9 Z M15,9 C15,10.067 15.934,11 17.001,11 C18.068,11 19,10.167 19,9.1 L19,8.002 L16.004,3 L14.061,3 L15,7.902 L15,9 Z M5,9.068 C5,10.135 5.933,11 7,11 C8.067,11 9,10.135 9,9.068 L9,7.971 L9.939,3 L7.996,3 L5,7.971 L5,9.068 Z M1,12 L23,12 L23,24 L1,24 L1,12 Z M3,20 L21,20 L21,14 L3,14 L3,20 Z M4,9.068 L4,7.971 L6.887,3 L4.873,3 L8.8817842e-16,7.971 L8.8817842e-16,9.069 C8.8817842e-16,10.135 0.933,11 2,11 C3.067,11 4,10.135 4,9.068 L4,9.068 Z M19.127,3 L17.113,3 L20,7.902 L20,9 C20,10.067 20.933,11 22,11 C23.067,11 24,10.135 24,9.068 L24,7.971 L19.127,3 Z M19,0 L5,0 L5,2 L19,2 L19,0 Z" id="Shape"></path>
        </g>
    </g>
</svg>