<svg xmlns="http://www.w3.org/2000/svg" viewBox="0 0 442.57 118.57"><defs><style>.cls-1{fill:#fff;}</style></defs><title>LogoWideWhite</title><g id="Layer_2" data-name="Layer 2"><g id="Layer_1-2" data-name="Layer 1"><path class="cls-1" d="M101,27,57.76,1.19a9.7,9.7,0,0,0-9.25,0L4.58,27A10,10,0,0,0,0,35V84.86a9.81,9.81,0,0,0,4.67,8l43.86,24.64a10.13,10.13,0,0,0,9.21,0l42.5-23.94h0a9.93,9.93,0,0,0,4.7-7.94l.6-50.5A9.94,9.94,0,0,0,101,27ZM75.25,72.35,56.14,83.59V61.32l1.57-.93,0,.06L75,50.65ZM6,35.81,50.14,61.34V83.8L6,58.78Zm46.91-2,19.26,11L53.12,56.13,33.66,44.88Zm25.81,7.81L59,30.39,77.35,19.87,96.74,31.45ZM51.56,6.33a3.79,3.79,0,0,1,3.13,0l16.75,10L27.65,41.4,9.67,31ZM7.61,87.6A3.9,3.9,0,0,1,6,84.86V65.68l42.43,24a8,8,0,0,0,1.71.69v21.07Zm48.53,23.88V90.32a7.94,7.94,0,0,0,1.53-.66L75.32,79.27l.21,21.29ZM97.29,88.3h0l-15.8,8.9L81,47.27l18.52-10.5-.58,48.74A4,4,0,0,1,97.29,88.3Z"/><circle class="cls-1" cx="365.72" cy="45.31" r="6.28"/><path class="cls-1" d="M301.43,73.16c-.06-13.3-5.3-20-15.58-20-11.42,0-16.62,9.17-16.62,17.69,0,5.43,1.85,10.18,5.2,13.37a16.55,16.55,0,0,0,11.71,4.35l1.16,0c3.6-.18,7.16-.55,11.14-2.93l.57-.34L295.42,78l-.58.17c-4.69,1.37-9,1-11.82-1.06a5.67,5.67,0,0,1-2.31-3.25h20.72Zm-20.45-7c.7-3.06,2.13-4.33,4.8-4.33s5.62,1.16,6.45,4.33Z"/><path class="cls-1" d="M241.11,78.54a9.05,9.05,0,0,1-2.29.3c-3.33,0-4.63-1.28-4.63-4.56V63.19l9.81.18V54.09h-9.81V45.54H222.94v8.55H208.87V45.54H197.62v8.55h-5.7v9.09h5.7v13c0,8.28,6.72,12,13.37,12a21.09,21.09,0,0,0,9.06-1.8l.73-.33-4.47-7.6-.53.14a9,9,0,0,1-2.29.3c-3.33,0-4.63-1.28-4.63-4.56V63.18h14.07v13c0,8.28,6.72,12,13.37,12a21.09,21.09,0,0,0,9.06-1.8l.73-.33-4.47-7.6Z"/><path class="cls-1" d="M438.83,78.08l-1,.25a12.31,12.31,0,0,1-2.53.51c-3.33,0-4.63-1.28-4.63-4.56V63.18h10.94l-5.12-9.09h-5.82V45.54H419.47v8.55h-5.7v9.09h5.7v13c0,8.28,6.72,12,13.37,12a21.09,21.09,0,0,0,9.06-1.8l.66-.3Z"/><path class="cls-1" d="M264.71,78.35c-2.58,0-3.84-1.13-3.84-3.45V39.35H249.63v36.6c0,7.45,4.62,12.26,11.78,12.26a16.07,16.07,0,0,0,7.68-1.81l.72-.34-4.69-7.71Z"/><polygon class="cls-1" points="330.38 56.38 316.47 39.35 305.95 39.35 305.95 87.55 317.41 87.55 317.41 57.56 330.38 73.04 343.36 57.56 343.36 87.51 354.81 87.51 354.81 39.35 344.29 39.35 330.38 56.38"/><rect class="cls-1" x="360.12" y="54.09" width="11.24" height="33.43"/><path class="cls-1" d="M397.51,53.12a15.17,15.17,0,0,0-9.5,3.24V54.09H377.25V87.51H388.5V65.24A8.68,8.68,0,0,1,394.31,63c3.47,0,5.47,2.5,5.47,6.86V87.51H411V68.3C411,57.09,403.74,53.12,397.51,53.12Z"/><path class="cls-1" d="M190.34,73.16c-.06-13.3-5.3-20-15.58-20-11.42,0-16.62,9.17-16.62,17.69,0,5.43,1.85,10.18,5.2,13.37A16.55,16.55,0,0,0,175,88.52l1.16,0c3.6-.18,7.16-.55,11.14-2.93l.57-.34L184.32,78l-.58.17c-4.69,1.37-9,1-11.82-1.06a5.67,5.67,0,0,1-2.31-3.25h20.73Zm-20.45-7c.7-3.06,2.13-4.33,4.8-4.33s5.62,1.16,6.45,4.33Z"/><path class="cls-1" d="M140.59,54.19c-3.74-1.66-7-3.1-7-5.29,0-2,1.51-3.26,4-3.26a9.52,9.52,0,0,1,5.73,1.73c1.26,1,2.1,1.74,2.1,1.74l7.18-7c-4.83-5.67-8.88-7.54-15.11-7.83C129.45,34,121,41.12,121,49.67c0,9.33,7.48,12.9,13.48,15.77,4.36,2.08,8.12,3.88,8.12,7.21a5.39,5.39,0,0,1-5.33,5.18c-3.82.13-8.48-2.21-9.94-4.89l-9.14,5.52.48.84c2.7,5.11,10.76,9.63,18.35,9.69,7,.05,11.47-2.9,13.86-5.53a18,18,0,0,0,4.66-11.95C155.53,60.84,146.9,57,140.59,54.19Z"/></g></g></svg>
