<?xml version="1.0" encoding="UTF-8" standalone="no"?>
<svg width="29px" height="24px" viewBox="0 0 29 24" version="1.1" xmlns="http://www.w3.org/2000/svg" xmlns:xlink="http://www.w3.org/1999/xlink">
    <!-- Generator: Sketch 43.2 (39069) - http://www.bohemiancoding.com/sketch -->
    <title>purchases-icon</title>
    <desc>Created with Sketch.</desc>
    <defs></defs>
    <g id="Page-1" stroke="none" stroke-width="1" fill="none" fill-rule="evenodd">
        <g id="Artboard" fill-rule="nonzero" fill="#FFFFFF">
            <g id="purchases-icon">
                <path d="M5.4708,6 L11.112,0.3576 C11.3496,0.12 11.6628,0 11.976,0 C12.7116,0 13.2,0.606 13.2,1.2348 C13.2,1.5348 13.0896,1.8396 12.8412,2.088 L8.9292,6 L5.4708,6 L5.4708,6 Z M19.8708,6 L23.3304,6 L17.688,0.3576 C17.4504,0.12 17.1372,0 16.824,0 C16.0884,0 15.6,0.606 15.6,1.2348 C15.6,1.5348 15.7104,1.8396 15.9588,2.088 L19.8708,6 L19.8708,6 Z M24.3144,10.8 L24.2952,10.8492 L19.9776,21.6 L8.8224,21.6 L4.506,10.8468 L4.4868,10.8 L24.3144,10.8 L24.3144,10.8 Z M28.8,8.4 L0,8.4 L0,10.8 L0.7716,10.8 C1.4136,10.8 1.9968,11.1648 2.2788,11.7408 L7.2,24 L21.6,24 L26.5224,11.7432 C26.8032,11.166 27.3888,10.8 28.0296,10.8 L28.8,10.8 L28.8,8.4 Z M12,14.4 C12,13.7376 11.4636,13.2 10.8,13.2 C10.1364,13.2 9.6,13.7376 9.6,14.4 L9.6,18 C9.6,18.6624 10.1364,19.2 10.8,19.2 C11.4636,19.2 12,18.6624 12,18 L12,14.4 Z M15.6,14.4 C15.6,13.7376 15.0636,13.2 14.4,13.2 C13.7364,13.2 13.2,13.7376 13.2,14.4 L13.2,18 C13.2,18.6624 13.7364,19.2 14.4,19.2 C15.0636,19.2 15.6,18.6624 15.6,18 L15.6,14.4 Z M19.2,14.4 C19.2,13.7376 18.6636,13.2 18,13.2 C17.3364,13.2 16.8,13.7376 16.8,14.4 L16.8,18 C16.8,18.6624 17.3364,19.2 18,19.2 C18.6636,19.2 19.2,18.6624 19.2,18 L19.2,14.4 Z" id="Shape"></path>
            </g>
        </g>
    </g>
</svg>