<?xml version="1.0" encoding="UTF-8" standalone="no"?>
<svg width="24px" height="20px" viewBox="0 0 24 20" version="1.1" xmlns="http://www.w3.org/2000/svg" xmlns:xlink="http://www.w3.org/1999/xlink">
    <!-- Generator: Sketch 43.2 (39069) - http://www.bohemiancoding.com/sketch -->
    <title>iconmonstr-basket-4</title>
    <desc>Created with Sketch.</desc>
    <defs></defs>
    <g id="Page-1" stroke="none" stroke-width="1" fill="none" fill-rule="evenodd">
        <g id="iconmonstr-basket-4" fill-rule="nonzero" fill="#FFFFFF">
            <path d="M4.559,5 L9.26,0.298 C9.458,0.1 9.719,0 9.98,0 C10.593,0 11,0.505 11,1.029 C11,1.279 10.908,1.533 10.701,1.74 L7.441,5 L4.559,5 L4.559,5 Z M16.559,5 L19.442,5 L14.74,0.298 C14.542,0.1 14.281,0 14.02,0 C13.407,0 13,0.505 13,1.029 C13,1.279 13.092,1.533 13.299,1.74 L16.559,5 L16.559,5 Z M20.262,9 L20.246,9.041 L16.648,18 L7.352,18 L3.755,9.039 L3.739,9 L20.262,9 L20.262,9 Z M24,7 L0,7 L0,9 L0.643,9 C1.178,9 1.664,9.304 1.899,9.784 L6,20 L18,20 L22.102,9.786 C22.336,9.305 22.824,9 23.358,9 L24,9 L24,7 Z M10,12 C10,11.448 9.553,11 9,11 C8.447,11 8,11.448 8,12 L8,15 C8,15.552 8.447,16 9,16 C9.553,16 10,15.552 10,15 L10,12 Z M13,12 C13,11.448 12.553,11 12,11 C11.447,11 11,11.448 11,12 L11,15 C11,15.552 11.447,16 12,16 C12.553,16 13,15.552 13,15 L13,12 Z M16,12 C16,11.448 15.553,11 15,11 C14.447,11 14,11.448 14,12 L14,15 C14,15.552 14.447,16 15,16 C15.553,16 16,15.552 16,15 L16,12 Z" id="Shape"></path>
        </g>
    </g>
</svg>